<?xml version="1.0" encoding="utf-8"?>
<!-- Generator: Adobe Illustrator 16.0.0, SVG Export Plug-In . SVG Version: 6.00 Build 0)  -->
<!DOCTYPE svg PUBLIC "-//W3C//DTD SVG 1.0//EN" "http://www.w3.org/TR/2001/REC-SVG-20010904/DTD/svg10.dtd">
<svg version="1.0" xmlns="http://www.w3.org/2000/svg" xmlns:xlink="http://www.w3.org/1999/xlink" x="0px" y="0px" width="360px"
	 height="160px" viewBox="0 0 360 160" enable-background="new 0 0 360 160" xml:space="preserve">
<g id="Layer_2" display="none">
	<rect x="7.75" y="-87.333" display="inline" width="331" height="331"/>
</g>
<g id="Layer_3" display="none">
	<path display="inline" d="M370.25,262.173c0,7.182-5.813,12.994-12.994,12.994H-10.757c-7.181,0-12.993-5.813-12.993-12.994
		V-105.84c0-7.181,5.813-12.993,12.993-12.993h368.013c7.182,0,12.994,5.813,12.994,12.993V262.173z"/>
</g>
<g id="Layer_1">
	<path fill="#8660A9" d="M-172.031,50.687c0,0-5.154,1.64-10.971,1.568c-13.733-0.169-23.018-12.185-23.377-12.657v-0.016
		c0,0-0.003,0.004-0.007,0.008c-0.004-0.004-0.006-0.008-0.006-0.008v0.016c-0.359,0.472-9.645,12.487-23.377,12.657
		c-5.817,0.072-10.972-1.568-10.972-1.568s-2.026,38.143,1.064,46.382c8.922,23.78,26.092,23.191,33.285,30.679v0.012
		c0.002-0.001,0.005-0.004,0.006-0.006c0.002,0.002,0.004,0.005,0.007,0.006v-0.012c7.192-7.487,24.363-6.899,33.285-30.679
		C-170.004,88.83-172.031,50.687-172.031,50.687z M-179.313,95.601c-7.255,19.338-21.218,18.86-27.069,24.949v0.01
		c-0.002-0.002-0.002-0.004-0.005-0.006c-0.001,0.002-0.002,0.003-0.004,0.006v-0.01c-5.85-6.089-19.813-5.611-27.069-24.949
		c-2.512-6.7-0.866-37.72-0.866-37.72s4.193,1.333,8.924,1.275c11.169-0.137,18.719-9.909,19.012-10.292v-0.013
		c0,0,0.002,0.002,0.004,0.007c0.003-0.005,0.005-0.007,0.005-0.007v0.013c0.292,0.384,7.843,10.155,19.012,10.292
		c4.73,0.058,8.923-1.275,8.923-1.275S-176.799,88.901-179.313,95.601z"/>
	<path fill="#8660A9" d="M85.39,11.901v95.797H60.014V71.62H31.558v36.078H6.116V11.901h25.441v35.955h28.456V11.901H85.39z"/>
	<path fill="#8660A9" d="M127.178,35.555V48.92h30.425v21.223h-30.425v13.724h36.96v23.832h-62.103V11.901h62.103v23.653H127.178z"
		/>
	<path fill="#8660A9" d="M240.38,83.811v23.888h-62.104V11.901h25.433v71.909H240.38z"/>
	<path fill="#8660A9" d="M353.884,11.006v96.692h-25.432v-37.97l-25.791,36.369h-0.179l-25.858-36.369v37.97h-25.432V11.006h10.22
		l41.125,56.339l41.127-56.339H353.884z"/>
	<path fill="#8660A9" d="M10.604,130.405v4.49h7.689v4.475h-7.689v8.94H6.116v-22.368h13.441v4.463H10.604z"/>
	<path fill="#8660A9" d="M21.88,140.042v-14.048h4.515v14.034c0,2.439,1.922,4.206,4.076,4.206s4.103-1.78,4.103-4.206v-14.034
		h4.515v14.048c0,5.044-3.856,8.721-8.604,8.721C25.737,148.763,21.88,145.086,21.88,140.042z"/>
	<path fill="#8660A9" d="M60.683,125.942v22.755h-0.206l-13.234-12.873v12.486h-4.479v-22.729h0.22l13.21,12.848v-12.486H60.683z"/>
	<path fill="#8660A9" d="M82.639,137.165c0,6.914-4.398,11.12-11.598,11.12h-6.488v-22.278l6.488-0.013
		C78.24,125.981,82.639,130.213,82.639,137.165z M78.123,137.152c0-4.18-2.683-6.72-7.095-6.72h-2.012v13.389h2.051
		C75.453,143.821,78.123,141.306,78.123,137.152z"/>
	<path fill="#8660A9" d="M83.259,146.144c0-1.562,1.303-2.864,2.863-2.864c1.548,0,2.862,1.316,2.862,2.864
		c0,1.561-1.303,2.851-2.862,2.851C84.548,148.994,83.259,147.717,83.259,146.144z"/>
	<path fill="#8660A9" d="M100.672,125.994h7.819c4.319,0,7.844,3.392,7.844,7.533s-3.524,7.508-7.844,7.508h-3.342v7.25h-4.478
		V125.994z M111.857,133.489c0-1.69-1.511-3.057-3.366-3.057h-3.342v6.165l3.342,0.014
		C110.347,136.624,111.857,135.218,111.857,133.489z"/>
	<path fill="#8660A9" d="M118.655,140.042v-14.048h4.515v14.034c0,2.439,1.922,4.206,4.077,4.206c2.152,0,4.102-1.78,4.102-4.206
		v-14.034h4.515v14.048c0,5.044-3.856,8.721-8.604,8.721C122.513,148.763,118.655,145.086,118.655,140.042z"/>
	<path fill="#8660A9" d="M154.916,141.524c0,3.29-2.372,6.761-6.953,6.761h-8.423v-22.291h6.076c3.96,0,6.476,2.901,6.476,5.907
		c0,2.362-1.561,3.831-2.103,3.831C152.132,135.732,154.916,137.939,154.916,141.524z M144.004,130.354v4.348h1.807
		c1.069,0,2.103-0.903,2.103-2.205c0-1.265-0.98-2.143-2.015-2.143H144.004z M150.544,141.203c0-1.289-0.89-2.567-3.019-2.567
		h-3.521v5.277h3.535C148.996,143.913,150.544,142.919,150.544,141.203z"/>
	<path fill="#8660A9" d="M170.874,143.835v4.45h-13.441v-22.291h4.476v17.841H170.874z"/>
	<path fill="#8660A9" d="M173.39,125.994h4.477v22.291h-4.477V125.994z"/>
	<path fill="#8660A9" d="M180.573,144.44l3.588-2.515c0.981,1.573,2.401,2.295,4.323,2.295c2.102,0,3.508-0.862,3.508-2.05
		c0-1.626-2.659-2.916-5.004-4.076c-2.504-1.251-5.251-2.619-5.251-6.166c0-3.858,3.263-6.399,7.352-6.399
		c3.045,0,5.56,1.252,6.579,3.947l-3.315,2.31c-0.658-1.328-1.946-1.87-3.186-1.87c-1.678,0-2.916,0.979-2.916,2.118
		c0,1.326,1.678,1.789,4.243,2.99c3.69,1.741,6.014,3.624,6.014,7.056c0,4.063-3.317,6.644-8.09,6.644
		C184.768,148.724,182.072,147.201,180.573,144.44z"/>
	<path fill="#8660A9" d="M216.153,125.994v22.291h-4.463v-8.929h-8.011v8.929h-4.465v-22.291h4.465v8.914h8.011v-8.914H216.153z"/>
	<path fill="#8660A9" d="M219.547,146.144c0-1.562,1.29-2.864,2.862-2.864c1.548,0,2.852,1.316,2.852,2.864
		c0,1.561-1.29,2.851-2.852,2.851C220.823,148.994,219.547,147.717,219.547,146.144z"/>
	<path fill="#8660A9" d="M258.788,125.439v22.846h-4.489v-9.705l-6.41,9.332h-0.026l-6.437-9.332v9.705h-4.478v-22.846h0.246
		l10.682,14.73l10.655-14.73H258.788z"/>
	<path fill="#8660A9" d="M276.189,145.176h-8.912l-1.433,3.109h-4.838l10.653-22.846h0.132l10.667,22.846h-4.855L276.189,145.176z
		 M274.447,141.357l-2.708-5.96l-2.721,5.96H274.447z"/>
	<path fill="#8660A9" d="M296.262,148.285l-7.084-10.539v10.539h-4.486l-0.014-22.291h7.276c4.166,0,7.577,3.212,7.577,7.224
		c0,2.852-1.732,5.362-4.118,6.205l6.332,8.862H296.262z M289.167,136.031l2.865,0.013c1.521,0.012,2.882-1.214,2.882-2.8
		c0-1.6-1.374-2.812-2.882-2.812h-2.865V136.031z"/>
	<path fill="#8660A9" d="M315.109,148.285l-6.773-9.765v9.765h-4.461v-22.291h4.461v9.637l6.269-9.637h5.174l-7.146,10.912
		l7.933,11.379H315.109z"/>
	<path fill="#8660A9" d="M327.172,130.405v4.36h7.688v4.463h-7.688v4.606h8.964v4.45h-13.44v-22.291h13.44v4.411H327.172z"/>
	<path fill="#8660A9" d="M353.524,130.433h-5.469v17.853h-4.502v-17.853h-5.483v-4.438h15.454V130.433z"/>
	<g>
		<path d="M562.711,246.896c0,0-6.445,2.051-13.721,1.961c-17.172-0.211-28.783-15.236-29.232-15.827v-0.02
			c0,0-0.003,0.004-0.008,0.01c-0.004-0.006-0.007-0.01-0.007-0.01v0.02c-0.45,0.591-12.06,15.616-29.233,15.827
			c-7.274,0.09-13.721-1.961-13.721-1.961s-2.534,47.697,1.331,58c11.157,29.736,32.629,29.001,41.623,38.364v0.015
			c0.003-0.002,0.005-0.005,0.007-0.007c0.003,0.002,0.005,0.005,0.008,0.007v-0.015c8.994-9.363,30.466-8.627,41.623-38.364
			C565.245,294.593,562.711,246.896,562.711,246.896z"/>
		<path fill="#FDFDFE" d="M554.688,255.891c0,0-5.243,1.668-11.158,1.596c-13.967-0.172-23.408-12.39-23.774-12.871v-0.016
			c0,0-0.002,0.003-0.006,0.008c-0.003-0.005-0.005-0.008-0.005-0.008v0.016c-0.367,0.48-9.808,12.699-23.774,12.871
			c-5.916,0.073-11.159-1.596-11.159-1.596s-2.06,38.791,1.083,47.169c9.073,24.182,26.534,23.584,33.85,31.198v0.012
			c0.002-0.002,0.004-0.004,0.005-0.006c0.002,0.002,0.004,0.004,0.006,0.006v-0.012c7.316-7.614,24.777-7.017,33.85-31.198
			C556.748,294.682,554.688,255.891,554.688,255.891z"/>
	</g>
	<path fill="#8660A9" d="M-167.917,7.667c0,5.523-4.477,10-10,10h-49.333c-5.523,0-10-4.477-10-10V-35c0-5.523,4.477-10,10-10
		h49.333c5.523,0,10,4.477,10,10V7.667z"/>
</g>
<g id="Layer_5" display="none">
	<path display="inline" fill="none" stroke="#8660A9" stroke-width="4" stroke-miterlimit="10" d="M370.25,262.173
		c0,7.182-5.813,12.994-12.994,12.994H-10.757c-7.181,0-12.993-5.813-12.993-12.994V-105.84c0-7.181,5.813-12.993,12.993-12.993
		h368.013c7.182,0,12.994,5.813,12.994,12.993V262.173z"/>
</g>
<g id="Layer_4" display="none">
</g>
</svg>
