<?xml version="1.0" encoding="utf-8"?>
<!-- Generator: Adobe Illustrator 16.0.0, SVG Export Plug-In . SVG Version: 6.00 Build 0)  -->
<!DOCTYPE svg PUBLIC "-//W3C//DTD SVG 1.1//EN" "http://www.w3.org/Graphics/SVG/1.1/DTD/svg11.dtd">
<svg version="1.1" id="Layer_1" xmlns="http://www.w3.org/2000/svg" xmlns:xlink="http://www.w3.org/1999/xlink" x="0px" y="0px"
	 width="360px" height="160px" viewBox="0 0 360 160" enable-background="new 0 0 360 160" xml:space="preserve">
<g id="Layer_2" display="none">
	<rect x="7.75" y="-87.333" display="inline" width="331" height="331"/>
</g>
<g id="Layer_3" display="none">
	<path display="inline" d="M370.25,262.173c0,7.183-5.813,12.994-12.994,12.994H-10.757c-7.181,0-12.993-5.813-12.993-12.994
		V-105.84c0-7.181,5.813-12.993,12.993-12.993h368.013c7.182,0,12.994,5.813,12.994,12.993V262.173z"/>
</g>
<path fill="#8660A9" d="M-172.031,50.687c0,0-5.154,1.64-10.971,1.568c-13.733-0.169-23.018-12.185-23.377-12.657v-0.016
	c0,0-0.003,0.004-0.007,0.008c-0.004-0.004-0.006-0.008-0.006-0.008v0.016c-0.359,0.472-9.645,12.487-23.377,12.657
	c-5.817,0.072-10.972-1.568-10.972-1.568s-2.026,38.143,1.064,46.381c8.922,23.781,26.092,23.191,33.285,30.68v0.012
	c0.002-0.001,0.005-0.004,0.006-0.006c0.002,0.002,0.004,0.005,0.007,0.006v-0.012c7.192-7.487,24.363-6.898,33.285-30.68
	C-170.004,88.83-172.031,50.687-172.031,50.687z M-179.313,95.602c-7.255,19.338-21.218,18.859-27.069,24.948v0.011
	c-0.002-0.002-0.002-0.004-0.005-0.006c-0.001,0.002-0.002,0.002-0.004,0.006v-0.011c-5.85-6.089-19.813-5.61-27.069-24.948
	c-2.512-6.701-0.866-37.721-0.866-37.721s4.193,1.333,8.924,1.275c11.169-0.137,18.719-9.909,19.012-10.292v-0.013
	c0,0,0.002,0.002,0.004,0.007c0.003-0.005,0.005-0.007,0.005-0.007v0.013c0.292,0.384,7.843,10.155,19.012,10.292
	c4.73,0.058,8.923-1.275,8.923-1.275S-176.799,88.9-179.313,95.602z"/>
<path fill="#D8B4FE" d="M85.39,11.901v95.797H60.014V71.62H31.558v36.078H6.116V11.901h25.441v35.955h28.456V11.901H85.39z"/>
<path fill="#D8B4FE" d="M127.178,35.555V48.92h30.425v21.223h-30.425v13.724h36.96v23.832h-62.103V11.901h62.103v23.653
	L127.178,35.555L127.178,35.555z"/>
<path fill="#D8B4FE" d="M240.38,83.811v23.889h-62.104V11.901h25.433v71.91H240.38L240.38,83.811z"/>
<path fill="#D8B4FE" d="M353.884,11.006v96.692h-25.432v-37.97l-25.791,36.37h-0.179l-25.858-36.37v37.97h-25.433V11.006h10.221
	l41.125,56.339l41.127-56.339H353.884z"/>
<path fill="#D8B4FE" d="M10.604,130.405v4.489h7.689v4.476h-7.689v8.94H6.116v-22.369h13.441v4.464H10.604z"/>
<path fill="#D8B4FE" d="M21.88,140.042v-14.048h4.515v14.033c0,2.439,1.922,4.207,4.076,4.207c2.154,0,4.103-1.78,4.103-4.207
	v-14.033h4.515v14.048c0,5.044-3.856,8.722-8.604,8.722S21.88,145.086,21.88,140.042z"/>
<path fill="#D8B4FE" d="M60.683,125.941v22.756h-0.206l-13.234-12.873v12.486h-4.479v-22.729h0.22l13.21,12.848v-12.485h4.489
	V125.941z"/>
<path fill="#D8B4FE" d="M82.639,137.165c0,6.914-4.398,11.12-11.598,11.12h-6.488v-22.278l6.488-0.013
	C78.24,125.98,82.639,130.213,82.639,137.165z M78.123,137.152c0-4.18-2.683-6.721-7.095-6.721h-2.012v13.389h2.051
	C75.453,143.82,78.123,141.307,78.123,137.152z"/>
<path fill="#D8B4FE" d="M83.259,146.145c0-1.563,1.303-2.864,2.863-2.864c1.548,0,2.862,1.315,2.862,2.864
	c0,1.561-1.303,2.851-2.862,2.851C84.548,148.994,83.259,147.717,83.259,146.145z"/>
<path fill="#D8B4FE" d="M100.672,125.994h7.819c4.319,0,7.844,3.392,7.844,7.533c0,4.141-3.524,7.508-7.844,7.508h-3.342v7.25
	h-4.478L100.672,125.994L100.672,125.994z M111.857,133.489c0-1.69-1.511-3.058-3.366-3.058h-3.342v6.166l3.342,0.014
	C110.347,136.624,111.857,135.218,111.857,133.489z"/>
<path fill="#D8B4FE" d="M118.655,140.042v-14.048h4.515v14.033c0,2.439,1.922,4.207,4.077,4.207c2.152,0,4.102-1.78,4.102-4.207
	v-14.033h4.515v14.048c0,5.044-3.856,8.722-8.604,8.722C122.513,148.764,118.655,145.086,118.655,140.042z"/>
<path fill="#D8B4FE" d="M154.916,141.523c0,3.291-2.372,6.762-6.953,6.762h-8.423v-22.291h6.076c3.96,0,6.476,2.9,6.476,5.906
	c0,2.363-1.561,3.832-2.103,3.832C152.132,135.732,154.916,137.939,154.916,141.523z M144.004,130.354v4.349h1.807
	c1.069,0,2.103-0.903,2.103-2.205c0-1.265-0.98-2.144-2.015-2.144H144.004z M150.544,141.203c0-1.289-0.89-2.567-3.019-2.567h-3.521
	v5.277h3.535C148.996,143.913,150.544,142.919,150.544,141.203z"/>
<path fill="#D8B4FE" d="M170.874,143.835v4.45h-13.441v-22.291h4.476v17.841H170.874z"/>
<path fill="#D8B4FE" d="M173.39,125.994h4.477v22.291h-4.477V125.994z"/>
<path fill="#D8B4FE" d="M180.573,144.439l3.588-2.515c0.981,1.573,2.401,2.295,4.323,2.295c2.102,0,3.508-0.862,3.508-2.05
	c0-1.626-2.659-2.916-5.004-4.076c-2.504-1.251-5.252-2.619-5.252-6.166c0-3.857,3.264-6.398,7.353-6.398
	c3.045,0,5.56,1.252,6.579,3.947l-3.314,2.31c-0.658-1.328-1.946-1.87-3.187-1.87c-1.679,0-2.916,0.979-2.916,2.118
	c0,1.325,1.678,1.789,4.243,2.989c3.689,1.742,6.014,3.625,6.014,7.057c0,4.063-3.316,6.645-8.09,6.645
	C184.768,148.725,182.072,147.201,180.573,144.439z"/>
<path fill="#D8B4FE" d="M216.152,125.994v22.291h-4.463v-8.93h-8.01v8.93h-4.466v-22.291h4.466v8.914h8.01v-8.914H216.152z"/>
<path fill="#D8B4FE" d="M219.547,146.145c0-1.563,1.29-2.864,2.862-2.864c1.548,0,2.852,1.315,2.852,2.864
	c0,1.561-1.29,2.851-2.852,2.851C220.823,148.994,219.547,147.717,219.547,146.145z"/>
<path fill="#D8B4FE" d="M258.788,125.439v22.846h-4.489v-9.705l-6.41,9.332h-0.025l-6.438-9.332v9.705h-4.478v-22.846h0.245
	l10.683,14.729l10.655-14.729H258.788z"/>
<path fill="#D8B4FE" d="M276.189,145.176h-8.912l-1.434,3.109h-4.838l10.653-22.846h0.132l10.667,22.846h-4.854L276.189,145.176z
	 M274.447,141.357l-2.709-5.961l-2.721,5.961H274.447z"/>
<path fill="#D8B4FE" d="M296.262,148.285l-7.084-10.539v10.539h-4.486l-0.014-22.291h7.276c4.166,0,7.577,3.212,7.577,7.224
	c0,2.853-1.732,5.362-4.118,6.205l6.332,8.862H296.262z M289.167,136.031l2.865,0.013c1.521,0.013,2.882-1.214,2.882-2.8
	c0-1.6-1.374-2.813-2.882-2.813h-2.865V136.031z"/>
<path fill="#D8B4FE" d="M315.109,148.285l-6.773-9.766v9.766h-4.461v-22.291h4.461v9.637l6.27-9.637h5.174l-7.146,10.912
	l7.934,11.379H315.109L315.109,148.285z"/>
<path fill="#D8B4FE" d="M327.172,130.405v4.36h7.688v4.463h-7.688v4.605h8.964v4.45h-13.439v-22.291h13.439v4.411L327.172,130.405
	L327.172,130.405z"/>
<path fill="#D8B4FE" d="M353.524,130.434h-5.47v17.853h-4.502v-17.853h-5.482v-4.438h15.454V130.434z"/>
<g>
	<path d="M562.711,246.896c0,0-6.445,2.051-13.721,1.961c-17.172-0.211-28.783-15.236-29.232-15.827v-0.021
		c0,0-0.003,0.004-0.008,0.01c-0.004-0.006-0.007-0.01-0.007-0.01v0.021c-0.45,0.591-12.061,15.616-29.233,15.827
		c-7.273,0.09-13.721-1.961-13.721-1.961s-2.534,47.696,1.331,58c11.157,29.735,32.629,29,41.623,38.363v0.016
		c0.003-0.002,0.005-0.006,0.007-0.008c0.003,0.002,0.005,0.006,0.008,0.008v-0.016c8.994-9.363,30.466-8.627,41.623-38.363
		C565.245,294.593,562.711,246.896,562.711,246.896z"/>
	<path fill="#FDFDFE" d="M554.688,255.891c0,0-5.242,1.668-11.157,1.596c-13.968-0.172-23.408-12.389-23.774-12.87V244.6
		c0,0-0.002,0.004-0.006,0.008c-0.003-0.004-0.005-0.008-0.005-0.008v0.017c-0.367,0.479-9.808,12.698-23.774,12.87
		c-5.916,0.074-11.158-1.596-11.158-1.596s-2.061,38.791,1.082,47.17c9.073,24.182,26.534,23.584,33.851,31.197v0.012
		c0.002-0.002,0.004-0.004,0.005-0.006c0.002,0.002,0.004,0.004,0.006,0.006v-0.012c7.316-7.613,24.777-7.017,33.85-31.197
		C556.748,294.682,554.688,255.891,554.688,255.891z"/>
</g>
<path fill="#8660A9" d="M-167.917,7.667c0,5.523-4.477,10-10,10h-49.333c-5.523,0-10-4.477-10-10V-35c0-5.523,4.477-10,10-10h49.333
	c5.523,0,10,4.477,10,10V7.667L-167.917,7.667z"/>
<g id="Layer_5" display="none">
	<path display="inline" fill="none" stroke="#8660A9" stroke-width="4" stroke-miterlimit="10" d="M370.25,262.173
		c0,7.183-5.813,12.994-12.994,12.994H-10.757c-7.181,0-12.993-5.813-12.993-12.994V-105.84c0-7.181,5.813-12.993,12.993-12.993
		h368.013c7.182,0,12.994,5.813,12.994,12.993V262.173z"/>
</g>
<g id="Layer_4" display="none">
</g>
</svg>
